<mxfile host="app.diagrams.net" modified="2022-06-08T03:49:06.827Z" agent="5.0 (Windows NT 10.0; Win64; x64) AppleWebKit/537.36 (KHTML, like Gecko) Chrome/102.0.5005.63 Safari/537.36 Edg/102.0.1245.33" etag="4AZAeiTNjEil9U_Z10pf" version="19.0.2" type="github">
  <diagram id="C5RBs43oDa-KdzZeNtuy" name="Page-1">
    <mxGraphModel dx="1116" dy="1608" grid="1" gridSize="10" guides="1" tooltips="1" connect="1" arrows="1" fold="1" page="1" pageScale="1" pageWidth="583" pageHeight="827" math="0" shadow="0">
      <root>
        <mxCell id="WIyWlLk6GJQsqaUBKTNV-0" />
        <mxCell id="WIyWlLk6GJQsqaUBKTNV-1" parent="WIyWlLk6GJQsqaUBKTNV-0" />
        <mxCell id="rZV8M0Kk9CfMCFUAyF9g-2" style="edgeStyle=orthogonalEdgeStyle;rounded=0;orthogonalLoop=1;jettySize=auto;html=1;exitX=0.5;exitY=1;exitDx=0;exitDy=0;" edge="1" parent="WIyWlLk6GJQsqaUBKTNV-1" source="WIyWlLk6GJQsqaUBKTNV-3" target="rZV8M0Kk9CfMCFUAyF9g-0">
          <mxGeometry relative="1" as="geometry" />
        </mxCell>
        <mxCell id="WIyWlLk6GJQsqaUBKTNV-3" value="获取所有FALL字段&lt;br&gt;FModuleType is NULL" style="rounded=1;whiteSpace=wrap;html=1;fontSize=12;glass=0;strokeWidth=1;shadow=0;" parent="WIyWlLk6GJQsqaUBKTNV-1" vertex="1">
          <mxGeometry x="515" y="-150" width="130" height="60" as="geometry" />
        </mxCell>
        <mxCell id="rZV8M0Kk9CfMCFUAyF9g-20" style="edgeStyle=orthogonalEdgeStyle;rounded=0;orthogonalLoop=1;jettySize=auto;html=1;exitX=0.5;exitY=1;exitDx=0;exitDy=0;entryX=0.5;entryY=0;entryDx=0;entryDy=0;fontSize=11;fontColor=#9E9E9E;" edge="1" parent="WIyWlLk6GJQsqaUBKTNV-1" source="WIyWlLk6GJQsqaUBKTNV-6" target="rZV8M0Kk9CfMCFUAyF9g-5">
          <mxGeometry relative="1" as="geometry" />
        </mxCell>
        <mxCell id="rZV8M0Kk9CfMCFUAyF9g-21" style="edgeStyle=orthogonalEdgeStyle;rounded=0;orthogonalLoop=1;jettySize=auto;html=1;exitX=0.5;exitY=1;exitDx=0;exitDy=0;entryX=0.5;entryY=0;entryDx=0;entryDy=0;fontSize=11;fontColor=#9E9E9E;" edge="1" parent="WIyWlLk6GJQsqaUBKTNV-1" source="WIyWlLk6GJQsqaUBKTNV-6" target="rZV8M0Kk9CfMCFUAyF9g-14">
          <mxGeometry relative="1" as="geometry" />
        </mxCell>
        <mxCell id="rZV8M0Kk9CfMCFUAyF9g-22" style="edgeStyle=orthogonalEdgeStyle;rounded=0;orthogonalLoop=1;jettySize=auto;html=1;exitX=0.5;exitY=1;exitDx=0;exitDy=0;entryX=0.5;entryY=0;entryDx=0;entryDy=0;fontSize=11;fontColor=#9E9E9E;" edge="1" parent="WIyWlLk6GJQsqaUBKTNV-1" source="WIyWlLk6GJQsqaUBKTNV-6" target="rZV8M0Kk9CfMCFUAyF9g-16">
          <mxGeometry relative="1" as="geometry" />
        </mxCell>
        <mxCell id="WIyWlLk6GJQsqaUBKTNV-6" value="处理当前游标&lt;br&gt;解析FALL字段前两个字符&lt;br&gt;s=left(s,2)" style="rhombus;whiteSpace=wrap;html=1;shadow=0;fontFamily=Helvetica;fontSize=12;align=center;strokeWidth=1;spacing=6;spacingTop=-4;" parent="WIyWlLk6GJQsqaUBKTNV-1" vertex="1">
          <mxGeometry x="510" y="100" width="140" height="150" as="geometry" />
        </mxCell>
        <mxCell id="rZV8M0Kk9CfMCFUAyF9g-3" style="edgeStyle=orthogonalEdgeStyle;rounded=0;orthogonalLoop=1;jettySize=auto;html=1;exitX=0.5;exitY=1;exitDx=0;exitDy=0;exitPerimeter=0;entryX=0.5;entryY=0;entryDx=0;entryDy=0;fontSize=11;" edge="1" parent="WIyWlLk6GJQsqaUBKTNV-1" source="rZV8M0Kk9CfMCFUAyF9g-0" target="WIyWlLk6GJQsqaUBKTNV-6">
          <mxGeometry relative="1" as="geometry" />
        </mxCell>
        <mxCell id="rZV8M0Kk9CfMCFUAyF9g-0" value="将该结果设为游标" style="shape=cylinder3;whiteSpace=wrap;html=1;boundedLbl=1;backgroundOutline=1;size=15;" vertex="1" parent="WIyWlLk6GJQsqaUBKTNV-1">
          <mxGeometry x="550" y="-60" width="60" height="80" as="geometry" />
        </mxCell>
        <mxCell id="rZV8M0Kk9CfMCFUAyF9g-4" value="Switch" style="text;html=1;align=center;verticalAlign=middle;resizable=0;points=[];autosize=1;strokeColor=none;fillColor=none;" vertex="1" parent="WIyWlLk6GJQsqaUBKTNV-1">
          <mxGeometry x="530" y="50" width="50" height="20" as="geometry" />
        </mxCell>
        <mxCell id="rZV8M0Kk9CfMCFUAyF9g-5" value="s=03&amp;nbsp;&lt;br&gt;or&lt;br&gt;s=34&lt;br&gt;&lt;br&gt;FModuleType=&#39;SFP&#39;" style="rounded=1;whiteSpace=wrap;html=1;" vertex="1" parent="WIyWlLk6GJQsqaUBKTNV-1">
          <mxGeometry y="370" width="125" height="90" as="geometry" />
        </mxCell>
        <mxCell id="rZV8M0Kk9CfMCFUAyF9g-14" value="&lt;br&gt;s=0D&lt;br&gt;or&lt;br&gt;s=11,s=17&lt;br&gt;&lt;br&gt;FModuleType=&#39;QSFP&#39;" style="rounded=1;whiteSpace=wrap;html=1;" vertex="1" parent="WIyWlLk6GJQsqaUBKTNV-1">
          <mxGeometry x="155" y="370" width="140" height="90" as="geometry" />
        </mxCell>
        <mxCell id="rZV8M0Kk9CfMCFUAyF9g-15" value="&lt;br&gt;s=FF&lt;br&gt;or other value&lt;br&gt;&lt;br&gt;FModuleType=&#39;UNKNOWN&lt;br&gt;&#39;" style="rounded=1;whiteSpace=wrap;html=1;" vertex="1" parent="WIyWlLk6GJQsqaUBKTNV-1">
          <mxGeometry x="950" y="369" width="170" height="90" as="geometry" />
        </mxCell>
        <mxCell id="rZV8M0Kk9CfMCFUAyF9g-16" value="&lt;br&gt;s=1B&lt;br&gt;&lt;br&gt;FModuleType=&#39;DSFP&#39;" style="rounded=1;whiteSpace=wrap;html=1;" vertex="1" parent="WIyWlLk6GJQsqaUBKTNV-1">
          <mxGeometry x="320" y="370" width="140" height="90" as="geometry" />
        </mxCell>
        <mxCell id="rZV8M0Kk9CfMCFUAyF9g-17" value="&lt;br&gt;s=1A&lt;br&gt;&lt;br&gt;FModuleType=&#39;SFP-DD&#39;" style="rounded=1;whiteSpace=wrap;html=1;" vertex="1" parent="WIyWlLk6GJQsqaUBKTNV-1">
          <mxGeometry x="475" y="370" width="140" height="90" as="geometry" />
        </mxCell>
        <mxCell id="rZV8M0Kk9CfMCFUAyF9g-18" value="&lt;br&gt;s=18&lt;br&gt;&lt;br&gt;FModuleType=&#39;QDD&#39;" style="rounded=1;whiteSpace=wrap;html=1;" vertex="1" parent="WIyWlLk6GJQsqaUBKTNV-1">
          <mxGeometry x="630" y="370" width="140" height="90" as="geometry" />
        </mxCell>
        <mxCell id="rZV8M0Kk9CfMCFUAyF9g-19" value="&lt;br&gt;s=19&lt;br&gt;&lt;br&gt;FModuleType=&#39;OSFP&#39;" style="rounded=1;whiteSpace=wrap;html=1;" vertex="1" parent="WIyWlLk6GJQsqaUBKTNV-1">
          <mxGeometry x="790" y="370" width="140" height="90" as="geometry" />
        </mxCell>
      </root>
    </mxGraphModel>
  </diagram>
</mxfile>
